<svg xmlns="http://www.w3.org/2000/svg" viewBox="0 0 512 512" role="img" aria-label="MeetMind calligraphic M logo">
  <defs>
    <radialGradient id="bg" cx="34%" cy="24%" r="74%">
      <stop offset="0%" stop-color="#fef3c7"/>
      <stop offset="38%" stop-color="#f59e0b"/>
      <stop offset="100%" stop-color="#78350f"/>
    </radialGradient>
    <linearGradient id="stroke" x1="92" y1="76" x2="420" y2="436" gradientUnits="userSpaceOnUse">
      <stop offset="0%" stop-color="#fff7ed"/>
      <stop offset="42%" stop-color="#fde68a"/>
      <stop offset="100%" stop-color="#f59e0b"/>
    </linearGradient>
    <filter id="glow" x="-30%" y="-30%" width="160%" height="160%">
      <feGaussianBlur stdDeviation="7" result="blur"/>
      <feColorMatrix in="blur" values="1 0 0 0 0.96 0 1 0 0 0.62 0 0 1 0 0.04 0 0 0 0.72 0"/>
      <feMerge>
        <feMergeNode/>
        <feMergeNode in="SourceGraphic"/>
      </feMerge>
    </filter>
  </defs>
  <rect width="512" height="512" rx="130" fill="#050505"/>
  <rect x="18" y="18" width="476" height="476" rx="112" fill="url(#bg)" opacity="0.95"/>
  <rect x="35" y="35" width="442" height="442" rx="96" fill="#0a0907" opacity="0.88"/>
  <path d="M95 356C126 238 146 150 189 146c52-5 45 180 65 181 24 1 43-179 94-181 48-2 73 111 54 199" fill="none" stroke="#1c1204" stroke-width="52" stroke-linecap="round" stroke-linejoin="round" opacity="0.46"/>
  <path d="M95 356C126 238 146 150 189 146c52-5 45 180 65 181 24 1 43-179 94-181 48-2 73 111 54 199" fill="none" stroke="url(#stroke)" stroke-width="34" stroke-linecap="round" stroke-linejoin="round" filter="url(#glow)"/>
  <path d="M126 370c56 27 187 33 274-8" fill="none" stroke="#fde68a" stroke-width="17" stroke-linecap="round" opacity="0.82"/>
  <path d="M380 162c35-30 67 1 48 31-18 28-61 21-80-10" fill="none" stroke="#fcd34d" stroke-width="15" stroke-linecap="round" opacity="0.86"/>
</svg>
